<?xml version="1.0" encoding="UTF-8" standalone="no"?>
<svg
   xmlns:dc="http://purl.org/dc/elements/1.1/"
   xmlns:cc="http://creativecommons.org/ns#"
   xmlns:rdf="http://www.w3.org/1999/02/22-rdf-syntax-ns#"
   xmlns:svg="http://www.w3.org/2000/svg"
   xmlns="http://www.w3.org/2000/svg"
   xmlns:sodipodi="http://sodipodi.sourceforge.net/DTD/sodipodi-0.dtd"
   xmlns:inkscape="http://www.inkscape.org/namespaces/inkscape"
   width="20"
   height="20"
   viewBox="0 0 20 20"
   fill="none"
   version="1.1"
   id="svg30"
   sodipodi:docname="instagram.svg"
   inkscape:version="1.0.2 (e86c870879, 2021-01-15, custom)">
  <metadata
     id="metadata36">
    <rdf:RDF>
      <cc:Work
         rdf:about="">
        <dc:format>image/svg+xml</dc:format>
        <dc:type
           rdf:resource="http://purl.org/dc/dcmitype/StillImage" />
      </cc:Work>
    </rdf:RDF>
  </metadata>
  <defs
     id="defs34" />
  <sodipodi:namedview
     pagecolor="#ffffff"
     bordercolor="#666666"
     borderopacity="1"
     objecttolerance="10"
     gridtolerance="10"
     guidetolerance="10"
     inkscape:pageopacity="0"
     inkscape:pageshadow="2"
     inkscape:window-width="1920"
     inkscape:window-height="1017"
     id="namedview32"
     showgrid="false"
     inkscape:zoom="33.7"
     inkscape:cx="10"
     inkscape:cy="10"
     inkscape:window-x="1912"
     inkscape:window-y="-8"
     inkscape:window-maximized="1"
     inkscape:current-layer="svg30" />
  <g
     id="g41"
     transform="rotate(90,9.9999997,9.9999997)">
    <path
       d="m -6.01032e-7,6.25 3.27836e-7,7.5 C -1.22337e-7,17.2012 2.79875,20 6.25,20 h 7.5 C 17.2013,20 20,17.2012 20,13.75 V 6.25 C 20,2.79875 17.2012,-7.51891e-7 13.75,-6.01032e-7 l -7.5,3.27836e-7 C 2.79875,-1.22337e-7 -7.51891e-7,2.79875 -6.01032e-7,6.25 Z M 13.75,1.875 c 2.4125,0 4.375,1.9625 4.375,4.375 v 7.5 c 0,2.4125 -1.9625,4.375 -4.375,4.375 h -7.5 c -2.4125,0 -4.375,-1.9625 -4.375,-4.375 v -7.5 c 0,-2.4125 1.9625,-4.375 4.375,-4.375 z"
       fill="#000000"
       id="path24" />
    <path
       d="m 5,10 c 0,2.7612 2.23875,5 5,5 2.7613,0 5,-2.2388 5,-5 C 15,7.23875 12.7612,5 10,5 7.23875,5 5,7.23875 5,10 Z m 8.125,0 c 0,1.7225 -1.4025,3.125 -3.125,3.125 -1.72375,0 -3.125,-1.4025 -3.125,-3.125 0,-1.7225 1.40125,-3.125 3.125,-3.125 1.7225,0 3.125,1.4025 3.125,3.125 z"
       fill="#000000"
       id="path26" />
    <path
       d="m 5.29123,4.625 c 0,-0.36796 -0.29828,-0.66625 -0.66624,-0.66625 -0.36796,0 -0.66625,0.29829 -0.66625,0.66625 0,0.36796 0.29829,0.66625 0.66625,0.66625 0.36796,0 0.66624,-0.29829 0.66624,-0.66625 z"
       fill="#000000"
       id="path28" />
  </g>
</svg>
